<?xml version="1.0" encoding="UTF-8" standalone="no"?>
<!DOCTYPE svg PUBLIC "-//W3C//DTD SVG 20010904//EN"
              "http://www.w3.org/TR/2001/REC-SVG-20010904/DTD/svg10.dtd">

<svg xmlns="http://www.w3.org/2000/svg" width="5in" height="3.95833in" viewBox="0 0 360 285">
  <path id="Selection #1" fill="#212145ff" stroke="#000" stroke-width="1" d="M 19.00,26.00
           C 19.00,26.00 31.00,19.42 31.00,19.42
             40.89,13.84 65.14,2.14 76.00,1.18
             86.07,0.28 91.11,13.60 91.81,22.00
             93.05,36.67 71.57,69.30 70.00,80.00
             73.64,72.93 83.15,62.38 88.58,56.00
             100.56,41.94 111.73,28.47 127.00,17.72
             134.65,12.34 146.79,1.28 153.99,13.02
             154.78,14.29 155.28,15.54 155.61,17.00
             157.36,24.69 151.33,36.35 147.58,43.00
             147.58,43.00 127.72,78.00 127.72,78.00
             124.73,83.25 120.16,89.14 119.00,95.00
             123.16,87.24 131.81,80.65 137.83,74.00
             147.76,63.03 161.08,48.99 172.00,39.17
             172.00,39.17 191.00,23.42 191.00,23.42
             196.27,18.91 207.27,6.39 214.70,11.74
             216.61,13.12 218.53,15.99 219.77,18.00
             220.82,19.71 222.19,22.00 222.48,24.00
             223.46,30.74 209.63,43.06 205.17,48.00
             190.11,64.65 171.94,90.03 163.81,111.00
             161.03,118.17 153.32,139.91 168.00,139.71
             174.00,139.63 182.86,132.64 188.00,129.42
             188.00,129.42 208.00,116.00 208.00,116.00
             207.96,127.17 204.05,127.82 196.00,134.95
             196.00,134.95 187.00,142.35 187.00,142.35
             175.46,151.25 153.80,168.92 140.34,153.90
             138.75,152.12 137.66,150.22 136.81,148.00
             135.59,144.78 135.09,141.42 135.01,138.00
             134.44,113.12 153.01,90.12 168.08,72.00
             173.52,65.46 179.71,59.39 184.00,52.00
             175.81,51.68 165.79,62.69 160.00,68.09
             142.38,84.51 121.19,109.02 106.00,128.00
             106.00,128.00 89.39,148.98 89.39,148.98
             87.51,151.20 84.41,154.86 81.10,154.18
             78.16,153.57 76.57,149.54 75.77,147.00
             73.21,138.83 73.11,131.54 77.46,124.00
             77.46,124.00 93.58,101.00 93.58,101.00
             93.58,101.00 117.80,65.00 117.80,65.00
             123.63,55.29 129.89,46.66 130.00,35.00
             119.54,36.18 109.34,48.45 102.72,56.00
             85.01,76.20 68.84,97.60 54.00,120.00
             54.00,120.00 37.96,144.98 37.96,144.98
             35.96,147.70 32.95,151.31 29.10,150.16
             26.20,149.28 24.47,145.55 23.31,143.00
             18.74,132.95 18.55,127.84 25.13,119.00
             39.45,99.75 58.14,74.01 69.22,53.00
             71.85,48.02 80.49,32.28 75.45,27.43
             71.60,23.72 63.76,28.31 60.00,30.42
             60.00,30.42 21.00,53.14 21.00,53.14
             17.37,55.15 5.52,61.85 2.22,57.40
             0.19,55.07 1.91,47.87 2.22,45.00
             3.02,41.70 4.15,35.90 5.57,33.00
             9.02,25.93 21.88,16.49 29.00,13.00
             29.00,13.00 19.00,26.00 19.00,26.00 Z
           M 243.00,124.00
           C 244.15,126.43 246.66,125.43 249.00,125.08
             249.00,125.08 266.00,122.42 266.00,122.42
             266.00,122.42 298.00,120.01 298.00,120.01
             298.00,120.01 313.00,121.09 313.00,121.09
             319.09,121.52 328.28,123.33 331.44,129.09
             334.53,134.72 339.25,149.71 337.35,156.00
             335.84,161.04 325.09,174.26 321.44,180.00
             321.44,180.00 298.72,218.00 298.72,218.00
             298.72,218.00 285.75,242.00 285.75,242.00
             282.25,248.99 280.91,249.55 285.00,253.00
             281.74,260.57 273.19,276.70 266.99,281.61
             259.09,287.85 252.75,282.93 252.28,276.00
             251.63,266.46 261.18,248.44 265.77,240.00
             277.62,218.19 308.66,172.84 325.00,155.00
             298.36,150.22 270.98,154.63 245.00,161.13
             236.03,163.37 223.00,165.57 217.00,173.00
             223.35,174.14 230.60,174.16 236.00,178.00
             230.12,179.43 218.08,179.41 212.00,178.58
             209.67,178.26 205.47,177.98 203.82,176.26
             201.57,173.91 202.30,169.87 202.75,167.00
             204.00,159.11 206.09,149.58 210.79,143.00
             213.96,138.55 217.19,135.79 222.00,133.26
             224.72,131.83 228.92,131.02 230.00,128.00
             230.00,128.00 234.00,128.00 234.00,128.00
             234.00,128.00 232.00,128.00 232.00,128.00
             232.00,128.00 232.00,127.00 232.00,127.00
             232.00,127.00 243.00,124.00 243.00,124.00 Z
           M 198.00,163.00
           C 198.00,163.00 199.00,163.00 199.00,163.00
             199.00,163.00 198.00,164.00 198.00,164.00
             198.00,164.00 198.00,163.00 198.00,163.00 Z
           M 358.00,232.00
           C 358.00,232.00 359.00,232.00 359.00,232.00
             359.00,232.00 358.00,233.00 358.00,233.00
             358.00,233.00 358.00,232.00 358.00,232.00 Z
           M 314.00,284.00
           C 314.00,284.00 315.00,284.00 315.00,284.00
             315.00,284.00 314.00,285.00 314.00,285.00
             314.00,285.00 314.00,284.00 314.00,284.00 Z" />
</svg>
