<?xml version="1.0" encoding="UTF-8" standalone="no"?>
<!DOCTYPE svg PUBLIC "-//W3C//DTD SVG 20010904//EN"
              "http://www.w3.org/TR/2001/REC-SVG-20010904/DTD/svg10.dtd">

<svg xmlns="http://www.w3.org/2000/svg"

     viewBox="0 0 1920 1080">
  <path id="Selection"
        fill="#212145ff" stroke="#999" stroke-width="1"
        d="M 1353.00,347.00
           C 1347.34,345.62 1342.74,346.01 1337.00,346.00
             1326.51,345.98 1305.14,344.33 1297.04,337.61
             1293.15,334.38 1290.80,329.88 1289.68,325.00
             1285.09,305.02 1304.37,287.84 1320.00,279.31
             1337.34,269.85 1356.56,266.25 1376.00,264.91
             1376.00,264.91 1389.00,264.00 1389.00,264.00
             1393.96,264.06 1407.03,264.73 1409.69,269.22
             1411.19,271.77 1411.00,276.09 1411.00,279.00
             1411.00,281.96 1411.37,287.39 1409.98,289.90
             1407.94,293.58 1401.74,295.79 1398.00,297.42
             1398.00,297.42 1374.00,310.00 1374.00,310.00
             1378.67,303.48 1383.55,299.58 1390.00,295.00
             1369.43,288.33 1341.02,297.91 1323.00,308.28
             1318.47,310.89 1304.51,319.78 1306.52,325.90
             1308.16,330.89 1318.48,332.16 1323.00,332.71
             1323.00,332.71 1373.00,334.00 1373.00,334.00
             1376.31,334.01 1381.97,333.86 1384.69,335.93
             1389.68,339.74 1384.22,347.78 1380.91,350.78
             1375.38,355.80 1358.08,357.10 1350.00,359.13
             1334.70,362.97 1318.74,370.33 1306.00,379.64
             1300.36,383.76 1294.07,388.93 1290.48,395.00
             1282.38,408.70 1299.53,413.87 1310.00,414.00
             1332.26,414.26 1353.36,406.42 1372.00,394.56
             1372.00,394.56 1395.00,378.00 1395.00,378.00
             1394.80,387.07 1393.36,397.18 1388.53,405.00
             1382.29,415.12 1371.64,421.29 1361.00,425.85
             1339.78,434.94 1323.96,438.04 1301.00,438.00
             1282.49,437.97 1264.55,428.04 1267.29,407.00
             1267.78,403.21 1268.74,399.48 1270.31,396.00
             1276.78,381.66 1292.07,370.47 1306.00,363.89
             1327.03,353.94 1334.33,355.07 1353.00,349.00
             1353.00,349.00 1353.00,347.00 1353.00,347.00 Z
           M 1452.00,327.00
           C 1446.12,328.43 1434.08,328.41 1428.00,327.58
             1425.67,327.26 1421.46,326.98 1419.83,325.26
             1417.32,322.63 1418.69,317.21 1419.25,314.00
             1421.02,303.77 1423.20,294.53 1431.04,287.10
             1437.18,281.28 1446.90,278.11 1455.00,276.13
             1470.12,272.44 1485.54,270.97 1501.00,269.91
             1501.00,269.91 1510.00,269.01 1510.00,269.01
             1510.00,269.01 1522.00,269.91 1522.00,269.91
             1529.30,270.41 1537.47,269.95 1543.89,274.22
             1548.48,277.27 1553.17,292.42 1553.82,298.00
             1554.98,308.07 1545.71,317.12 1540.14,325.00
             1540.14,325.00 1510.15,375.00 1510.15,375.00
             1510.15,375.00 1501.12,392.00 1501.12,392.00
             1498.26,397.95 1496.98,398.61 1501.12,402.00
             1497.76,409.51 1489.07,425.68 1482.96,430.61
             1475.04,437.00 1468.73,431.73 1468.28,425.00
             1467.63,415.46 1477.18,397.44 1481.77,389.00
             1493.53,367.37 1524.80,321.69 1541.00,304.00
             1515.66,299.46 1484.73,303.45 1460.00,310.29
             1451.10,312.76 1438.99,314.52 1433.00,322.00
             1439.35,323.14 1446.60,323.16 1452.00,327.00 Z
           M 384.00,407.00
           C 380.46,412.10 369.36,425.81 364.00,427.99
             357.58,430.60 345.67,426.79 339.00,425.13
             326.17,421.92 300.35,415.15 288.00,415.00
             277.84,414.88 275.70,414.39 266.00,418.20
             262.21,419.69 251.86,424.30 248.15,423.09
             243.76,421.66 245.54,416.87 247.05,414.00
             250.78,406.93 256.86,397.57 264.00,393.82
             269.91,390.72 276.48,390.06 283.00,389.28
             286.84,388.83 290.27,389.67 293.24,386.69
             293.24,386.69 302.00,374.00 302.00,374.00
             302.00,374.00 317.02,352.00 317.02,352.00
             330.00,333.17 346.89,310.89 362.17,294.00
             367.87,287.69 377.75,278.27 385.00,273.93
             388.14,272.05 393.26,269.62 397.00,270.47
             407.64,272.90 402.59,286.30 400.33,293.00
             397.45,301.57 391.94,312.87 387.74,321.00
             387.74,321.00 382.33,331.00 382.33,331.00
             380.33,335.91 382.65,336.84 381.71,340.00
             381.02,342.32 376.68,347.12 374.91,349.00
             371.92,352.17 361.21,362.08 356.43,360.32
             351.66,358.57 356.01,346.27 357.23,343.00
             361.75,330.87 370.63,318.36 377.15,307.00
             378.48,304.69 383.67,296.81 382.59,294.45
             381.35,291.72 377.21,295.17 376.00,296.19
             370.61,300.75 364.77,307.58 360.13,313.00
             343.97,331.87 329.57,352.78 315.14,373.00
             315.14,373.00 304.00,389.00 304.00,389.00
             304.00,389.00 330.00,393.21 330.00,393.21
             330.00,393.21 362.00,401.85 362.00,401.85
             362.00,401.85 384.00,407.00 384.00,407.00 Z
           M 1117.00,302.00
           C 1128.48,290.53 1134.25,287.15 1149.00,280.87
             1156.31,277.76 1163.35,275.75 1171.00,273.73
             1176.45,272.30 1190.68,269.76 1196.00,270.09
             1211.96,271.08 1210.40,285.44 1206.78,297.00
             1204.88,303.07 1199.27,311.60 1195.67,317.00
             1195.67,317.00 1166.02,357.00 1166.02,357.00
             1166.02,357.00 1149.19,382.00 1149.19,382.00
             1147.52,385.01 1144.46,390.69 1149.19,392.79
             1152.40,394.25 1156.59,391.05 1159.00,389.18
             1159.00,389.18 1181.00,369.99 1181.00,369.99
             1181.00,369.99 1194.91,356.91 1194.91,356.91
             1194.91,356.91 1202.04,349.00 1202.04,349.00
             1202.04,349.00 1242.85,304.00 1242.85,304.00
             1242.85,304.00 1258.00,287.02 1258.00,287.02
             1259.91,285.15 1263.13,281.81 1265.96,281.74
             1269.98,281.65 1271.51,286.89 1272.18,290.00
             1274.37,300.14 1269.02,306.96 1263.67,315.00
             1250.78,334.37 1232.51,360.10 1223.23,381.00
             1220.73,387.20 1213.25,402.70 1223.23,406.40
             1227.21,407.97 1232.45,405.15 1236.00,403.13
             1236.00,403.13 1261.00,386.00 1261.00,386.00
             1260.90,396.54 1258.20,396.18 1251.00,403.04
             1242.83,410.82 1229.19,422.91 1218.00,425.47
             1205.13,428.42 1195.22,420.31 1196.18,407.00
             1196.93,396.64 1201.21,388.09 1205.75,379.00
             1205.75,379.00 1223.69,348.00 1223.69,348.00
             1223.69,348.00 1238.00,326.00 1238.00,326.00
             1238.00,326.00 1204.91,362.00 1204.91,362.00
             1204.91,362.00 1151.00,414.82 1151.00,414.82
             1148.47,417.03 1145.25,419.37 1142.00,420.35
             1127.65,424.68 1119.68,411.80 1121.29,399.00
             1122.43,389.92 1127.10,381.69 1131.81,374.00
             1141.94,357.47 1155.20,343.01 1167.39,328.00
             1172.88,321.24 1183.31,310.29 1185.00,302.00
             1176.16,302.43 1169.51,306.28 1162.00,310.58
             1162.00,310.58 1129.00,329.74 1129.00,329.74
             1124.68,331.83 1112.51,337.10 1108.00,336.41
             1105.78,336.07 1104.78,335.15 1103.00,334.00
             1091.57,349.96 1062.25,369.38 1045.00,379.80
             1038.86,383.50 1024.31,390.70 1020.00,395.00
             1044.20,395.53 1070.49,410.11 1102.00,401.00
             1100.08,407.72 1091.67,425.16 1085.91,428.77
             1081.05,431.83 1071.78,431.06 1066.00,431.00
             1052.91,430.84 1022.53,423.77 1008.00,421.25
             1002.40,420.28 990.16,418.03 985.00,419.51
             981.13,420.61 978.11,423.84 974.00,424.59
             970.34,425.26 967.57,423.93 967.23,419.98
             966.45,410.67 975.41,398.47 984.00,395.77
             984.00,395.77 1005.00,392.20 1005.00,392.20
             1009.41,390.56 1022.35,382.32 1027.00,379.42
             1043.64,369.06 1059.94,357.71 1074.00,343.99
             1082.80,335.39 1092.11,325.00 1097.74,314.00
             1101.17,307.31 1103.31,300.87 1093.00,300.10
             1079.79,299.10 1059.00,307.42 1047.00,312.86
             1038.94,316.52 1018.56,328.47 1012.00,334.00
             1018.82,332.34 1029.61,332.04 1036.00,335.00
             1031.54,339.53 1024.84,339.31 1019.00,341.44
             1012.00,343.98 995.41,355.04 992.14,344.95
             991.92,343.23 992.00,339.88 992.14,338.00
             992.14,338.00 992.14,330.00 992.14,330.00
             992.23,311.44 1006.68,305.91 1021.00,298.75
             1021.00,298.75 1036.00,291.85 1036.00,291.85
             1051.26,285.30 1070.11,277.38 1087.00,278.04
             1096.45,278.41 1106.57,280.97 1112.36,289.00
             1115.64,293.55 1115.70,296.87 1117.00,302.00 Z
           M 622.00,296.00
           C 622.00,296.00 634.00,289.42 634.00,289.42
             643.89,283.84 668.14,272.14 679.00,271.18
             689.07,270.28 694.11,283.60 694.81,292.00
             696.05,306.67 674.57,339.30 673.00,350.00
             676.64,342.93 686.15,332.38 691.58,326.00
             703.23,312.33 714.28,299.02 729.00,288.43
             737.04,282.65 751.88,269.99 757.99,285.00
             761.16,292.77 755.39,304.12 751.69,311.00
             751.69,311.00 730.15,349.00 730.15,349.00
             730.15,349.00 721.00,365.00 721.00,365.00
             731.75,352.62 762.17,320.85 774.00,310.17
             774.00,310.17 795.00,292.58 795.00,292.58
             800.02,288.26 810.53,276.58 817.70,281.74
             819.61,283.11 821.53,285.99 822.77,288.00
             824.03,290.05 825.54,292.53 825.57,295.00
             825.61,298.92 822.44,302.28 820.00,305.00
             820.00,305.00 806.42,320.00 806.42,320.00
             791.93,336.79 775.40,359.31 767.20,380.00
             765.08,385.37 761.55,395.31 762.20,401.00
             762.87,406.86 766.99,410.66 773.00,409.46
             774.64,409.13 776.49,408.36 778.00,407.63
             778.00,407.63 811.00,387.00 811.00,387.00
             810.87,396.98 806.18,398.53 799.00,404.85
             799.00,404.85 791.00,411.55 791.00,411.55
             779.29,420.91 755.77,439.83 742.56,422.96
             735.77,414.30 737.74,398.74 741.08,389.00
             746.70,372.59 758.42,357.23 769.43,344.00
             775.18,337.09 782.55,329.65 787.00,322.13
             785.33,321.93 784.73,321.71 783.00,322.13
             778.89,323.59 765.66,335.54 762.00,339.04
             742.93,357.28 725.48,377.40 709.00,398.00
             709.00,398.00 692.39,418.98 692.39,418.98
             690.51,421.20 687.41,424.86 684.10,424.18
             681.16,423.57 679.57,419.54 678.77,417.00
             676.21,408.83 676.11,401.54 680.46,394.00
             680.46,394.00 696.58,371.00 696.58,371.00
             696.58,371.00 720.80,335.00 720.80,335.00
             726.63,325.29 732.89,316.66 733.00,305.00
             722.79,306.15 712.03,318.53 705.58,326.00
             688.03,346.32 671.84,367.61 657.00,390.00
             657.00,390.00 640.96,414.98 640.96,414.98
             638.96,417.70 635.95,421.31 632.10,420.16
             629.20,419.28 627.47,415.55 626.31,413.00
             621.71,402.88 621.67,397.95 628.15,389.00
             643.63,367.64 659.87,346.40 672.22,323.00
             674.85,318.02 683.49,302.28 678.45,297.43
             674.59,293.72 666.77,298.31 663.00,300.42
             663.00,300.42 624.00,323.14 624.00,323.14
             620.37,325.15 608.52,331.85 605.22,327.40
             603.19,325.07 604.91,317.87 605.22,315.00
             606.02,311.70 607.15,305.90 608.57,303.00
             612.02,295.93 624.88,286.49 632.00,283.00
             632.00,283.00 622.00,296.00 622.00,296.00 Z
           M 562.88,272.00
           C 569.93,279.29 566.67,288.16 562.88,296.00
             562.88,296.00 548.42,321.00 548.42,321.00
             548.42,321.00 533.00,349.00 533.00,349.00
             536.02,349.00 548.55,348.39 550.35,350.02
             552.23,351.73 550.36,354.42 549.29,356.00
             547.39,358.81 538.23,370.61 535.83,371.98
             530.96,374.77 522.43,372.38 518.63,376.31
             515.74,379.31 508.36,394.56 506.83,399.00
             505.80,401.97 505.05,405.99 509.11,407.05
             512.81,408.02 526.15,400.03 530.00,398.00
             529.22,402.66 528.66,404.00 524.95,407.11
             524.95,407.11 518.00,412.42 518.00,412.42
             509.96,418.68 492.55,434.35 483.80,420.96
             480.79,416.48 482.00,409.66 483.80,405.00
             483.80,405.00 499.00,375.00 499.00,375.00
             499.00,375.00 460.00,375.00 460.00,375.00
             457.91,375.00 454.94,374.88 453.00,375.60
             448.12,377.40 440.69,386.95 436.91,391.00
             436.91,391.00 425.00,402.09 425.00,402.09
             425.00,402.09 413.00,414.00 413.00,414.00
             407.75,419.25 400.24,427.45 394.00,431.05
             391.64,432.40 387.02,434.68 384.61,432.36
             380.18,428.10 389.52,416.43 392.13,413.00
             396.22,407.63 401.85,401.67 408.00,398.68
             412.63,396.43 414.35,397.93 418.00,395.52
             422.58,392.50 434.53,378.91 438.00,374.00
             433.76,374.00 421.54,374.74 418.60,372.07
             414.72,368.55 419.73,361.80 422.18,359.00
             428.60,351.66 433.19,347.16 443.00,345.80
             446.31,345.06 447.83,344.76 451.00,345.80
             445.65,346.89 444.34,347.67 441.00,352.00
             441.00,352.00 454.00,352.00 454.00,352.00
             463.87,351.93 465.15,347.47 472.00,341.09
             472.00,341.09 503.00,313.27 503.00,313.27
             513.49,304.40 526.44,294.64 538.00,287.22
             538.00,287.22 562.88,272.00 562.88,272.00 Z
           M 975.88,272.00
           C 982.93,279.29 979.67,288.16 975.88,296.00
             975.88,296.00 961.42,321.00 961.42,321.00
             961.42,321.00 946.00,349.00 946.00,349.00
             949.02,349.00 961.55,348.39 963.35,350.02
             965.23,351.73 963.36,354.42 962.29,356.00
             960.39,358.81 951.23,370.61 948.83,371.98
             943.96,374.77 935.43,372.38 931.63,376.31
             928.74,379.31 921.36,394.56 919.83,399.00
             918.80,401.97 918.05,405.99 922.11,407.05
             925.81,408.02 939.15,400.03 943.00,398.00
             942.22,402.66 941.66,404.00 937.95,407.11
             937.95,407.11 931.00,412.42 931.00,412.42
             922.96,418.68 905.55,434.35 896.80,420.96
             893.79,416.48 895.00,409.66 896.80,405.00
             896.80,405.00 912.00,375.00 912.00,375.00
             912.00,375.00 873.00,375.00 873.00,375.00
             870.91,375.00 867.94,374.88 866.00,375.60
             861.12,377.40 853.69,386.95 849.91,391.00
             849.91,391.00 838.00,402.09 838.00,402.09
             838.00,402.09 826.00,414.00 826.00,414.00
             820.75,419.25 813.24,427.45 807.00,431.05
             804.64,432.40 800.02,434.68 797.61,432.36
             793.17,428.09 802.55,416.38 805.21,413.00
             809.28,407.83 815.03,401.63 821.00,398.69
             825.53,396.45 827.35,397.93 831.00,395.52
             835.58,392.50 847.53,378.91 851.00,374.00
             846.76,374.00 834.54,374.74 831.60,372.07
             827.72,368.55 832.73,361.80 835.18,359.00
             841.60,351.66 846.19,347.16 856.00,345.80
             859.31,345.06 860.83,344.76 864.00,345.80
             858.65,346.89 857.34,347.67 854.00,352.00
             854.00,352.00 867.00,352.00 867.00,352.00
             876.87,351.93 878.15,347.47 885.00,341.09
             885.00,341.09 916.00,313.27 916.00,313.27
             926.49,304.40 939.44,294.64 951.00,287.22
             951.00,287.22 975.88,272.00 975.88,272.00 Z
           M 1704.88,272.00
           C 1711.93,279.29 1708.67,288.16 1704.88,296.00
             1704.88,296.00 1690.42,321.00 1690.42,321.00
             1690.42,321.00 1675.00,349.00 1675.00,349.00
             1678.02,349.00 1690.55,348.39 1692.35,350.02
             1694.23,351.73 1692.36,354.42 1691.29,356.00
             1689.39,358.81 1680.23,370.61 1677.83,371.98
             1672.96,374.77 1664.43,372.38 1660.63,376.31
             1657.74,379.31 1650.36,394.56 1648.83,399.00
             1647.80,401.97 1647.05,405.99 1651.11,407.05
             1654.81,408.02 1668.15,400.03 1672.00,398.00
             1671.22,402.66 1670.66,404.00 1666.95,407.11
             1666.95,407.11 1660.00,412.42 1660.00,412.42
             1651.96,418.68 1634.55,434.35 1625.80,420.96
             1622.79,416.48 1624.00,409.66 1625.80,405.00
             1625.80,405.00 1641.00,375.00 1641.00,375.00
             1641.00,375.00 1602.00,375.00 1602.00,375.00
             1599.91,375.00 1596.94,374.88 1595.00,375.60
             1590.12,377.40 1582.69,386.95 1578.91,391.00
             1578.91,391.00 1567.00,402.09 1567.00,402.09
             1567.00,402.09 1552.00,417.00 1552.00,417.00
             1547.13,421.87 1541.10,428.44 1535.00,431.64
             1532.47,432.91 1528.05,434.77 1526.04,431.64
             1522.89,426.82 1532.00,415.72 1534.89,412.00
             1538.69,407.09 1544.36,401.42 1550.00,398.68
             1554.63,396.43 1556.35,397.93 1560.00,395.52
             1564.58,392.50 1576.53,378.91 1580.00,374.00
             1575.76,374.00 1563.54,374.74 1560.60,372.07
             1556.72,368.55 1561.73,361.80 1564.18,359.00
             1570.60,351.66 1575.19,347.16 1585.00,345.80
             1588.31,345.06 1589.83,344.76 1593.00,345.80
             1587.65,346.89 1586.34,347.67 1583.00,352.00
             1583.00,352.00 1596.00,352.00 1596.00,352.00
             1605.87,351.93 1607.15,347.47 1614.00,341.09
             1614.00,341.09 1645.00,313.27 1645.00,313.27
             1655.49,304.40 1668.44,294.64 1680.00,287.22
             1680.00,287.22 1704.88,272.00 1704.88,272.00 Z
           M 550.00,290.00
           C 542.24,292.47 532.66,300.62 526.00,305.63
             513.51,315.01 485.48,338.16 477.00,350.00
             477.00,350.00 495.00,349.00 495.00,349.00
             495.00,349.00 507.00,349.00 507.00,349.00
             516.28,348.98 515.41,348.06 523.58,334.00
             523.58,334.00 538.42,309.00 538.42,309.00
             538.42,309.00 550.00,290.00 550.00,290.00 Z
           M 963.00,290.00
           C 955.24,292.47 945.66,300.62 939.00,305.63
             926.51,315.01 898.48,338.16 890.00,350.00
             890.00,350.00 908.00,349.00 908.00,349.00
             908.00,349.00 920.00,349.00 920.00,349.00
             929.28,348.98 928.41,348.06 936.58,334.00
             936.58,334.00 951.42,309.00 951.42,309.00
             951.42,309.00 963.00,290.00 963.00,290.00 Z
           M 1692.00,290.00
           C 1684.24,292.47 1674.66,300.62 1668.00,305.63
             1655.51,315.01 1627.48,338.16 1619.00,350.00
             1619.00,350.00 1637.00,349.00 1637.00,349.00
             1637.00,349.00 1649.00,349.00 1649.00,349.00
             1658.28,348.98 1657.41,348.06 1665.58,334.00
             1665.58,334.00 1680.42,309.00 1680.42,309.00
             1680.42,309.00 1692.00,290.00 1692.00,290.00 Z
           M 1239.00,325.00
           C 1239.00,325.00 1238.00,325.00 1238.00,325.00
             1238.00,325.00 1239.00,326.00 1239.00,326.00
             1239.00,326.00 1239.00,325.00 1239.00,325.00 Z
           M 740.00,615.00
           C 734.12,616.43 722.08,616.41 716.00,615.58
             713.67,615.26 709.47,614.98 707.82,613.26
             705.26,610.59 706.51,605.25 707.08,602.00
             708.81,592.11 711.53,582.22 719.04,575.10
             725.18,569.28 734.90,566.11 743.00,564.13
             758.12,560.44 773.54,558.97 789.00,557.91
             789.00,557.91 798.00,557.01 798.00,557.01
             798.00,557.01 810.00,557.91 810.00,557.91
             817.30,558.41 825.47,557.95 831.89,562.22
             836.48,565.27 841.17,580.42 841.82,586.00
             842.98,596.07 833.71,605.12 828.14,613.00
             828.14,613.00 798.15,663.00 798.15,663.00
             798.15,663.00 789.12,680.00 789.12,680.00
             786.26,685.95 784.98,686.61 789.12,690.00
             785.76,697.51 777.07,713.68 770.96,718.61
             763.04,725.00 756.73,719.73 756.28,713.00
             755.63,703.46 765.18,685.44 769.77,677.00
             781.53,655.37 812.80,609.69 829.00,592.00
             803.66,587.46 772.73,591.45 748.00,598.29
             739.10,600.76 726.99,602.52 721.00,610.00
             727.35,611.14 734.60,611.16 740.00,615.00 Z
           M 1121.00,674.00
           C 1120.97,676.41 1121.07,678.71 1120.15,681.00
             1118.14,685.95 1102.65,700.35 1098.00,705.00
             1092.19,710.81 1088.37,714.36 1082.00,719.58
             1082.00,719.58 1069.00,729.26 1069.00,729.26
             1048.83,742.89 1012.75,755.14 994.39,732.00
             992.06,729.06 989.92,724.57 988.75,721.00
             986.92,715.41 985.88,707.88 986.01,702.00
             986.45,682.72 995.56,663.03 1005.68,647.00
             1022.43,620.48 1044.82,595.36 1070.00,576.63
             1080.73,568.65 1095.58,560.01 1109.00,558.14
             1116.08,557.15 1123.42,557.68 1127.87,564.09
             1133.80,572.65 1132.51,584.56 1129.85,594.00
             1124.37,613.41 1101.95,641.55 1087.00,654.72
             1080.49,660.45 1065.41,674.92 1056.02,671.26
             1048.09,668.18 1049.76,659.97 1052.82,654.00
             1057.25,645.36 1072.93,627.09 1082.00,624.00
             1082.00,624.00 1080.00,632.00 1080.00,632.00
             1091.87,623.02 1106.04,604.43 1112.81,591.00
             1115.35,585.75 1119.72,575.84 1112.81,571.91
             1107.93,569.06 1099.09,574.77 1095.00,577.52
             1083.54,585.20 1065.40,602.52 1056.43,613.00
             1043.25,628.38 1031.82,643.82 1022.75,662.00
             1017.32,672.90 1012.73,684.63 1013.01,697.00
             1013.35,711.91 1022.60,726.00 1039.00,724.82
             1063.52,723.05 1088.24,703.35 1106.00,687.72
             1111.11,683.22 1115.44,677.98 1121.00,674.00 Z
           M 992.88,560.00
           C 999.93,567.29 996.67,576.16 992.88,584.00
             992.88,584.00 978.42,609.00 978.42,609.00
             978.42,609.00 963.00,637.00 963.00,637.00
             966.02,637.00 978.55,636.39 980.35,638.02
             982.23,639.73 980.36,642.42 979.29,644.00
             977.39,646.81 968.23,658.61 965.83,659.98
             960.96,662.77 952.43,660.38 948.63,664.31
             945.74,667.31 938.36,682.56 936.83,687.00
             935.80,689.97 935.05,693.99 939.11,695.05
             942.81,696.02 956.15,688.03 960.00,686.00
             959.22,690.66 958.66,692.00 954.95,695.11
             954.95,695.11 948.00,700.42 948.00,700.42
             939.96,706.68 922.55,722.35 913.80,708.96
             910.79,704.48 912.00,697.66 913.80,693.00
             913.80,693.00 929.00,663.00 929.00,663.00
             929.00,663.00 890.00,663.00 890.00,663.00
             887.91,663.00 884.94,662.88 883.00,663.60
             878.12,665.40 870.69,674.95 866.91,679.00
             866.91,679.00 855.00,690.09 855.00,690.09
             855.00,690.09 840.00,705.00 840.00,705.00
             835.13,709.87 829.10,716.44 823.00,719.64
             820.47,720.91 816.05,722.77 814.04,719.64
             810.89,714.82 820.00,703.72 822.89,700.00
             826.69,695.09 832.36,689.42 838.00,686.68
             842.63,684.43 844.35,685.93 848.00,683.52
             852.58,680.50 864.53,666.91 868.00,662.00
             863.76,662.00 851.54,662.74 848.60,660.07
             844.72,656.55 849.73,649.80 852.18,647.00
             858.60,639.66 863.19,635.16 873.00,633.80
             876.31,633.06 877.83,632.76 881.00,633.80
             875.65,634.89 874.34,635.67 871.00,640.00
             871.00,640.00 884.00,640.00 884.00,640.00
             893.87,639.93 895.15,635.47 902.00,629.09
             902.00,629.09 933.00,601.27 933.00,601.27
             943.49,592.40 956.44,582.64 968.00,575.22
             968.00,575.22 992.88,560.00 992.88,560.00 Z
           M 1208.00,593.00
           C 1214.72,591.06 1219.94,589.84 1227.00,590.01
             1239.67,590.32 1245.43,598.02 1246.70,610.00
             1247.77,620.12 1241.62,639.54 1237.57,649.00
             1226.44,675.03 1205.86,701.12 1178.00,709.97
             1173.75,711.32 1165.37,713.10 1161.00,712.90
             1139.09,711.90 1130.89,694.17 1128.84,675.00
             1128.84,675.00 1128.08,668.00 1128.08,668.00
             1128.08,660.90 1130.34,649.74 1132.69,643.00
             1142.56,614.72 1171.61,583.90 1198.00,570.26
             1211.88,563.08 1229.28,556.18 1238.19,574.00
             1239.87,577.35 1240.43,579.34 1241.00,583.00
             1229.53,583.93 1217.52,586.20 1208.00,593.00 Z
           M 980.00,578.00
           C 972.24,580.47 962.66,588.62 956.00,593.63
             943.51,603.01 915.48,626.16 907.00,638.00
             907.00,638.00 925.00,637.00 925.00,637.00
             925.00,637.00 937.00,637.00 937.00,637.00
             946.28,636.98 945.41,636.06 953.58,622.00
             953.58,622.00 968.42,597.00 968.42,597.00
             968.42,597.00 980.00,578.00 980.00,578.00 Z
           M 1177.00,618.00
           C 1171.16,622.57 1166.80,629.68 1163.00,636.00
             1154.76,649.70 1143.62,669.71 1144.01,686.00
             1144.27,696.33 1150.36,702.71 1161.00,701.81
             1170.81,700.99 1181.79,692.98 1189.00,686.71
             1206.99,671.07 1231.71,640.07 1231.80,615.00
             1232.02,612.81 1232.08,609.05 1231.80,607.00
             1229.84,599.37 1223.61,598.50 1217.00,599.81
             1205.58,602.07 1194.14,609.94 1186.00,618.00
             1177.64,626.28 1174.39,631.41 1168.00,641.00
             1168.00,641.00 1177.00,618.00 1177.00,618.00 Z
           M 1178.00,617.00
           C 1178.00,617.00 1177.00,617.00 1177.00,617.00
             1177.00,617.00 1178.00,618.00 1178.00,618.00
             1178.00,618.00 1178.00,617.00 1178.00,617.00 Z" />
</svg>
