<?xml version="1.0" encoding="UTF-8" standalone="no"?>
<svg
   width="24"
   height="24"
   viewBox="0 0 24 24"
   version="1.1"
   id="svg349"
   sodipodi:docname="fb-circle-icon-me.svg"
   inkscape:version="1.1.1 (c3084ef, 2021-09-22)"
   xmlns:inkscape="http://www.inkscape.org/namespaces/inkscape"
   xmlns:sodipodi="http://sodipodi.sourceforge.net/DTD/sodipodi-0.dtd"
   xmlns="http://www.w3.org/2000/svg"
   xmlns:svg="http://www.w3.org/2000/svg">
  <defs
     id="defs353" />
  <sodipodi:namedview
     id="namedview351"
     pagecolor="#ffffff"
     bordercolor="#666666"
     borderopacity="1.0"
     inkscape:pageshadow="2"
     inkscape:pageopacity="0.0"
     inkscape:pagecheckerboard="0"
     showgrid="false"
     inkscape:zoom="26.041667"
     inkscape:cx="12.0192"
     inkscape:cy="12"
     inkscape:window-width="1296"
     inkscape:window-height="847"
     inkscape:window-x="0"
     inkscape:window-y="25"
     inkscape:window-maximized="0"
     inkscape:current-layer="svg349" />
  <path
     d="M 12,0 C 5.373,0 0,5.373 0,12 0,18.627 5.373,24 12,24 18.627,24 24,18.627 24,12 24,5.373 18.627,0 12,0 Z m 3,8 H 13.65 C 13.112,8 13,8.221 13,8.778 V 10 h 2 l -0.209,2 H 13 v 7 H 10 V 12 H 8 v -2 h 2 V 7.692 C 10,5.923 10.931,5 13.029,5 H 15 Z"
     id="path347"
     sodipodi:insensitive="true" />
  <path
     style="fill:#ffffff;fill-opacity:0;stroke:#550000;stroke-width:0.0384"
     d="M 10.0224,15.4944 V 12 h -0.9984001 -0.9984 v -0.9984 -0.9984 h 0.9956077 0.9956074 l 0.01505,-1.4880001 c 0.01425,-1.4088476 0.01965,-1.5033053 0.101511,-1.7757267 0.12425,-0.4134621 0.297511,-0.7159454 0.561033,-0.9794674 0.273292,-0.2732925 0.572996,-0.4405257 1.02338,-0.571042 0.484515,-0.1404068 0.938921,-0.1777639 2.1623,-0.1777639 H 14.976 V 6.4857805 7.960361 L 14.153177,7.97378 C 12.976424,7.992972 13.004558,7.963721 12.986068,9.1871995 L 12.973736,10.0032 h 1.001132 c 0.550623,0 1.001125,0.01296 1.001117,0.0288 -8e-6,0.01584 -0.04321,0.431574 -0.096,0.923854 -0.05279,0.49228 -0.09598,0.9286 -0.09598,0.9696 0,0.07168 -0.0347,0.07455 -0.9024,0.07455 h -0.9024 v 3.4944 3.4944 h -1.4784 -1.4784 z"
     id="path26156"
     sodipodi:insensitive="true" />
</svg>
