<?xml version="1.0" encoding="UTF-8" standalone="no"?>
<!DOCTYPE svg PUBLIC "-//W3C//DTD SVG 20010904//EN"
              "http://www.w3.org/TR/2001/REC-SVG-20010904/DTD/svg10.dtd">

<svg xmlns="http://www.w3.org/2000/svg" width="26.6667in" height="15in" viewBox="0 0 1920 1080">
  <path id="Selection" fill="none" stroke="black" stroke-width="1" d="M 1235.00,257.00
           C 1239.33,245.92 1251.69,237.00 1262.00,231.76
             1288.83,218.11 1307.72,216.95 1337.00,217.00
             1349.81,217.02 1352.02,219.04 1361.00,228.00
             1361.00,228.00 1373.00,240.00 1373.00,240.00
             1380.76,230.87 1398.49,227.49 1410.00,225.87
             1437.66,221.98 1436.84,221.87 1465.00,222.00
             1470.58,222.03 1480.01,223.13 1485.00,225.57
             1489.11,227.57 1493.69,232.69 1497.00,236.00
             1500.23,239.23 1509.18,247.82 1511.30,251.00
             1513.29,253.98 1515.13,260.37 1516.33,264.00
             1518.13,269.38 1519.94,273.31 1517.87,279.00
             1516.07,283.93 1509.42,292.50 1506.15,297.00
             1506.15,297.00 1492.80,318.00 1492.80,318.00
             1492.80,318.00 1464.32,369.00 1464.32,369.00
             1461.92,375.12 1465.76,374.76 1463.18,381.00
             1459.87,389.04 1450.09,406.48 1441.00,407.79
             1433.56,408.85 1429.75,403.75 1425.00,399.00
             1415.78,389.80 1407.47,385.36 1410.52,371.00
             1412.76,360.43 1420.34,346.46 1425.72,337.00
             1437.68,315.97 1452.03,296.68 1466.00,277.00
             1466.00,277.00 1444.00,280.42 1444.00,280.42
             1444.00,280.42 1407.00,290.00 1407.00,290.00
             1411.07,294.07 1414.34,296.35 1416.00,302.00
             1416.00,302.00 1392.00,302.00 1392.00,302.00
             1388.99,302.00 1385.77,302.21 1383.00,300.83
             1379.58,299.11 1372.09,291.09 1369.00,288.00
             1363.58,282.58 1360.28,280.97 1360.00,273.00
             1354.40,275.41 1350.23,277.82 1345.00,280.86
             1342.87,282.10 1339.49,284.53 1337.00,284.41
             1331.72,284.15 1325.11,273.26 1320.00,271.11
             1316.86,269.80 1312.10,271.95 1309.00,273.00
             1299.53,276.23 1290.39,280.54 1282.00,286.00
             1282.00,286.00 1313.00,286.00 1313.00,286.00
             1316.22,286.04 1325.35,286.84 1328.00,288.17
             1331.28,289.82 1337.16,296.16 1340.00,299.00
             1348.35,307.35 1357.50,313.72 1345.82,324.67
             1339.29,330.80 1319.50,331.89 1310.00,334.72
             1288.57,341.11 1272.83,350.17 1257.00,366.00
             1276.45,365.94 1295.69,358.06 1312.00,347.94
             1312.00,347.94 1329.00,335.79 1329.00,335.79
             1330.94,334.28 1334.47,331.05 1337.00,331.16
             1340.24,331.30 1346.59,338.59 1349.00,341.00
             1351.73,343.73 1357.13,348.54 1358.48,352.00
             1359.37,354.63 1359.00,360.20 1358.48,363.00
             1356.36,377.06 1350.70,384.99 1339.00,392.97
             1318.46,406.99 1287.57,413.28 1263.00,413.00
             1256.59,412.92 1249.75,411.53 1244.00,408.62
             1237.12,405.15 1228.68,395.68 1223.00,390.00
             1220.89,387.89 1215.92,382.16 1213.00,381.96
             1210.38,381.78 1206.94,385.17 1205.00,386.74
             1200.19,390.63 1193.59,395.27 1188.00,397.88
             1170.23,406.15 1162.75,396.75 1151.00,385.00
             1144.87,378.87 1140.99,376.34 1138.00,368.00
             1138.00,368.00 1124.00,381.04 1124.00,381.04
             1116.42,388.29 1109.67,396.76 1098.00,395.90
             1090.46,395.35 1086.03,390.02 1081.00,385.00
             1071.70,375.72 1061.52,368.57 1062.51,354.00
             1063.71,336.43 1077.22,320.77 1087.00,307.00
             1082.30,308.87 1078.15,310.75 1073.00,311.17
             1071.10,311.04 1068.27,310.67 1066.58,311.17
             1066.58,311.17 1049.00,326.72 1049.00,326.72
             1036.27,337.32 1022.17,346.46 1008.00,355.00
             1012.30,355.57 1013.47,355.94 1018.00,356.00
             1023.73,356.06 1029.33,356.17 1035.00,355.32
             1039.18,354.56 1043.21,352.83 1047.00,355.32
             1047.00,355.32 1060.00,368.00 1060.00,368.00
             1061.72,369.73 1064.93,372.67 1065.59,375.00
             1066.45,378.03 1062.67,384.16 1061.25,387.00
             1057.63,394.22 1054.47,402.54 1046.00,405.20
             1042.56,406.28 1035.80,406.04 1032.00,406.00
             1009.48,405.73 970.41,393.51 953.00,394.02
             943.89,394.28 938.86,401.74 932.00,399.39
             928.66,398.24 923.63,392.63 921.00,390.00
             917.84,386.84 910.13,379.86 908.75,376.00
             906.74,370.37 912.04,359.41 915.53,355.02
             924.38,343.87 939.48,347.46 946.00,345.01
             946.00,345.01 965.00,334.05 965.00,334.05
             975.63,327.38 986.17,320.84 996.00,313.00
             987.93,314.09 982.39,315.93 975.00,319.31
             969.59,321.78 963.16,325.60 957.00,323.26
             953.01,321.75 946.26,314.26 943.00,311.00
             940.33,308.33 935.92,304.31 934.31,301.00
             931.92,296.09 933.95,289.88 932.00,283.00
             930.38,288.54 925.17,296.56 922.14,302.00
             921.02,304.02 918.54,307.74 918.57,310.00
             918.65,317.30 932.81,320.33 927.72,329.00
             925.90,332.09 914.65,346.25 911.83,347.40
             907.79,349.06 895.44,346.49 893.61,354.72
             893.02,357.36 895.39,359.30 897.03,361.01
             899.97,364.08 905.80,368.87 906.67,373.00
             907.00,374.58 906.79,376.29 905.98,377.70
             904.56,380.16 891.13,390.05 888.00,392.37
             882.29,396.61 875.48,401.54 868.00,400.89
             860.85,400.28 855.78,393.78 851.00,389.00
             847.69,385.69 840.17,378.66 838.09,375.00
             833.40,366.76 837.81,357.39 842.00,350.00
             839.15,350.00 832.38,349.72 830.00,350.60
             825.96,352.09 815.63,363.37 812.00,367.00
             803.45,375.55 779.66,400.43 771.00,405.66
             763.27,410.33 758.79,407.67 753.00,402.00
             750.86,399.90 747.17,395.41 744.00,395.44
             742.07,395.45 737.91,398.21 736.00,399.22
             730.98,401.87 723.79,405.24 718.00,404.66
             708.87,403.76 704.09,398.08 698.00,392.00
             689.68,383.68 680.61,377.50 680.00,365.00
             673.80,370.47 664.51,383.97 658.56,391.00
             655.52,394.59 651.31,399.77 646.00,398.67
             641.53,397.74 632.53,387.57 629.00,384.00
             623.58,378.51 620.74,375.91 620.00,368.00
             615.78,371.95 610.83,380.82 607.58,386.00
             605.66,389.05 603.46,392.88 599.96,394.26
             593.21,396.92 588.18,390.17 584.00,386.00
             574.86,376.87 568.64,372.95 565.16,360.00
             564.42,357.26 563.73,353.82 564.28,351.00
             565.13,346.61 574.98,334.35 578.15,330.00
             578.15,330.00 607.00,287.00 607.00,287.00
             607.00,287.00 579.00,302.12 579.00,302.12
             566.42,307.36 562.18,299.19 554.00,291.00
             551.15,288.14 546.38,283.99 545.47,280.00
             544.64,276.37 547.67,261.83 549.09,258.00
             551.96,250.29 559.58,244.67 566.00,239.90
             568.50,238.04 571.62,235.30 574.96,236.21
             576.80,236.72 578.10,238.47 580.28,238.47
             582.15,238.46 588.80,234.84 591.00,233.86
             598.50,230.52 606.12,227.37 614.00,225.04
             617.15,224.10 622.83,222.66 626.00,223.44
             630.95,224.67 641.00,235.99 645.00,240.00
             649.69,244.71 652.93,247.52 655.00,254.00
             661.73,247.58 672.96,238.46 681.00,233.87
             684.84,231.68 689.45,229.25 694.00,230.43
             698.86,231.70 707.18,241.18 711.00,245.00
             715.01,249.01 718.55,251.81 721.00,257.00
             728.04,253.24 736.57,244.77 743.00,239.43
             746.16,236.81 750.80,232.84 755.00,232.40
             759.71,231.89 762.97,235.99 766.00,239.00
             771.69,244.66 782.53,254.83 786.64,261.00
             788.85,264.33 791.11,267.90 789.63,272.00
             788.02,276.47 773.40,291.30 769.29,296.00
             759.65,307.01 749.13,321.31 741.85,334.00
             738.53,339.78 734.84,345.55 733.00,352.00
             733.00,352.00 746.00,342.98 746.00,342.98
             747.76,341.77 750.84,339.30 753.00,339.32
             759.58,339.40 764.00,354.87 774.00,346.82
             776.30,344.96 781.66,340.26 780.80,337.00
             779.66,332.66 770.26,328.54 771.43,321.00
             772.21,315.99 776.59,311.44 780.00,308.00
             788.34,299.60 789.63,299.05 801.00,297.84
             803.43,297.58 806.63,296.85 809.00,297.16
             813.03,297.69 815.23,300.32 818.00,303.00
             822.74,296.39 839.18,281.93 846.00,275.84
             860.57,262.83 875.74,250.84 892.00,240.00
             892.00,240.00 915.00,226.37 915.00,226.37
             921.52,223.76 924.73,228.74 929.00,233.00
             937.29,241.27 947.10,248.11 944.00,261.00
             965.69,249.39 999.18,231.04 1024.00,231.00
             1033.17,230.99 1040.72,230.19 1049.00,235.21
             1053.21,237.76 1061.03,247.60 1065.00,246.98
             1066.93,246.67 1071.12,243.30 1073.00,242.09
             1073.00,242.09 1086.00,235.31 1086.00,235.31
             1102.86,227.59 1120.41,222.78 1139.00,223.00
             1150.29,223.14 1154.41,230.41 1162.00,238.00
             1171.41,247.41 1173.15,246.89 1173.00,260.00
             1173.00,260.00 1172.00,272.00 1172.00,272.00
             1175.21,266.02 1192.58,246.53 1198.01,241.00
             1201.16,237.80 1204.98,233.29 1210.00,234.33
             1213.47,235.05 1216.56,238.58 1219.00,241.00
             1219.00,241.00 1235.00,257.00 1235.00,257.00 Z
           M 429.00,350.00
           C 426.15,350.00 419.38,349.72 417.00,350.60
             412.96,352.09 402.63,363.37 399.00,367.00
             399.00,367.00 375.00,391.00 375.00,391.00
             370.91,395.08 361.89,403.66 357.00,406.23
             351.94,408.90 347.37,408.53 343.00,404.85
             340.97,403.15 337.74,399.09 335.00,399.04
             331.32,398.98 329.66,404.43 321.00,403.82
             304.64,402.66 271.67,390.19 247.00,389.10
             233.70,388.52 220.38,399.19 211.00,397.85
             205.42,397.06 197.11,387.14 193.00,383.00
             191.20,381.18 188.10,378.26 187.04,376.00
             185.24,372.19 187.53,368.27 189.45,365.00
             194.14,357.00 198.95,348.61 208.00,345.07
             219.39,340.61 229.02,342.92 233.68,339.99
             236.26,338.37 239.48,332.70 241.22,330.00
             241.22,330.00 254.67,310.00 254.67,310.00
             267.72,290.64 284.45,268.48 299.85,251.00
             307.46,242.35 315.32,233.77 325.00,227.36
             329.65,224.29 336.39,221.53 342.00,223.60
             345.56,224.91 351.14,231.14 354.00,234.00
             357.41,237.41 365.70,244.89 367.26,249.00
             369.14,253.93 366.91,261.20 365.33,266.00
             360.79,279.79 353.32,292.11 346.79,304.96
             343.56,311.30 347.28,310.75 345.69,315.00
             344.99,316.87 342.60,319.45 341.27,321.00
             337.21,325.72 327.43,335.03 321.00,335.55
             314.18,336.11 308.09,325.50 299.00,319.00
             299.00,319.00 280.00,348.00 280.00,348.00
             280.00,348.00 301.00,353.12 301.00,353.12
             301.00,353.12 328.00,359.98 328.00,359.98
             328.00,359.98 335.00,365.00 335.00,365.00
             338.23,358.98 343.72,353.76 350.00,350.92
             356.78,347.86 356.49,351.60 363.99,343.99
             364.93,343.05 366.79,341.16 367.37,340.00
             370.58,333.59 357.01,330.14 358.43,321.00
             359.21,315.99 363.59,311.44 367.00,308.00
             375.34,299.60 376.63,299.05 388.00,297.84
             390.43,297.58 393.63,296.85 396.00,297.16
             400.03,297.69 402.23,300.32 405.00,303.00
             410.28,295.62 415.74,292.08 422.00,285.99
             437.26,271.12 456.37,255.34 474.00,243.34
             479.01,239.94 498.25,227.47 503.00,225.99
             508.07,224.40 510.65,227.72 514.00,231.00
             520.07,236.96 531.07,246.17 531.78,255.00
             532.20,260.25 529.52,265.46 527.25,270.00
             527.25,270.00 510.77,299.00 510.77,299.00
             509.67,301.03 505.98,307.21 505.68,309.00
             504.24,317.54 521.04,319.68 514.06,330.00
             512.29,332.61 501.82,345.77 499.71,346.98
             495.55,349.37 482.52,346.17 480.61,354.72
             480.02,357.36 482.39,359.30 484.03,361.01
             486.97,364.08 492.80,368.87 493.67,373.00
             494.00,374.58 493.79,376.29 492.98,377.70
             491.56,380.16 478.13,390.05 475.00,392.37
             469.29,396.61 462.48,401.54 455.00,400.89
             447.85,400.28 442.78,393.78 438.00,389.00
             434.69,385.69 427.17,378.66 425.09,375.00
             420.40,366.76 424.81,357.39 429.00,350.00 Z
           M 1547.00,303.00
           C 1552.28,295.62 1557.74,292.08 1564.00,285.99
             1579.26,271.12 1598.37,255.34 1616.00,243.34
             1621.01,239.94 1640.25,227.47 1645.00,225.99
             1650.07,224.40 1652.65,227.72 1656.00,231.00
             1662.07,236.96 1673.07,246.17 1673.78,255.00
             1674.20,260.25 1671.52,265.46 1669.25,270.00
             1669.25,270.00 1652.77,299.00 1652.77,299.00
             1651.67,301.03 1647.98,307.21 1647.68,309.00
             1646.24,317.54 1663.04,319.68 1656.06,330.00
             1654.29,332.61 1643.82,345.77 1641.71,346.98
             1637.55,349.37 1624.52,346.17 1622.61,354.72
             1622.02,357.36 1624.39,359.30 1626.03,361.01
             1628.97,364.08 1634.80,368.87 1635.67,373.00
             1636.00,374.58 1635.79,376.29 1634.98,377.70
             1633.56,380.16 1620.13,390.05 1617.00,392.37
             1611.29,396.61 1604.48,401.54 1597.00,400.89
             1589.85,400.28 1584.78,393.78 1580.00,389.00
             1576.69,385.69 1569.17,378.66 1567.09,375.00
             1562.40,366.76 1566.81,357.39 1571.00,350.00
             1571.00,350.00 1564.00,350.00 1564.00,350.00
             1555.63,350.16 1552.63,355.37 1547.00,361.00
             1547.00,361.00 1515.00,393.00 1515.00,393.00
             1510.54,397.41 1501.09,406.48 1495.00,407.66
             1486.07,409.38 1477.68,397.85 1472.02,392.00
             1468.90,388.78 1465.67,385.87 1466.65,381.00
             1468.52,371.81 1482.05,356.52 1490.00,351.95
             1497.90,347.42 1501.78,351.02 1508.71,341.00
             1513.69,333.79 1499.95,330.95 1500.32,322.00
             1500.52,317.14 1504.82,312.28 1508.02,309.00
             1516.72,300.05 1517.92,299.13 1530.00,297.84
             1532.43,297.58 1535.63,296.85 1538.00,297.16
             1542.03,297.69 1544.23,300.32 1547.00,303.00 Z
           M 704.00,590.00
           C 704.00,590.00 680.00,590.00 680.00,590.00
             669.07,589.98 668.67,587.67 661.00,580.00
             657.87,576.87 649.98,569.76 648.70,566.00
             647.40,562.75 648.15,556.41 648.70,553.00
             650.87,542.23 653.95,532.53 663.00,525.53
             672.12,518.47 687.72,515.39 699.00,513.73
             725.03,509.89 726.79,509.88 753.00,510.00
             758.58,510.03 768.01,511.13 773.00,513.57
             777.11,515.57 781.69,520.69 785.00,524.00
             788.23,527.23 797.18,535.82 799.30,539.00
             801.29,541.98 803.13,548.37 804.33,552.00
             806.31,557.93 808.11,561.82 805.47,568.00
             802.83,574.17 794.14,584.60 790.05,591.00
             790.05,591.00 762.77,637.00 762.77,637.00
             762.77,637.00 751.92,658.00 751.92,658.00
             750.64,662.21 752.75,663.23 751.92,667.00
             751.38,669.30 748.67,673.82 747.42,676.00
             743.57,682.72 738.07,693.80 730.00,695.61
             722.10,697.38 718.03,692.02 713.00,687.00
             704.05,678.06 696.01,673.87 698.32,660.00
             699.95,650.23 708.16,634.75 713.15,626.00
             725.34,604.63 739.78,585.02 754.00,565.00
             754.00,565.00 732.00,568.42 732.00,568.42
             732.00,568.42 695.00,578.00 695.00,578.00
             699.07,582.07 702.34,584.35 704.00,590.00 Z
           M 943.00,608.00
           C 945.49,599.46 956.01,586.31 961.65,579.00
             978.45,557.20 1003.30,531.31 1028.00,518.76
             1037.51,513.92 1051.12,507.89 1062.00,510.53
             1068.08,512.01 1072.71,517.71 1077.00,522.00
             1081.65,526.65 1091.49,535.52 1094.08,541.00
             1096.58,546.27 1096.37,552.45 1098.00,558.00
             1100.90,551.86 1107.80,545.98 1113.00,541.59
             1125.20,531.29 1145.44,515.71 1162.00,515.04
             1175.94,514.48 1184.07,525.86 1192.99,535.00
             1199.49,541.66 1204.53,548.62 1206.00,558.00
             1206.00,558.00 1196.00,558.00 1196.00,558.00
             1200.72,564.60 1207.15,569.00 1209.89,577.00
             1211.22,580.86 1211.04,584.97 1211.00,589.00
             1210.85,601.33 1204.73,618.00 1199.25,629.00
             1188.05,651.44 1174.91,668.79 1152.00,680.25
             1143.05,684.72 1137.15,686.95 1127.00,687.00
             1127.00,687.00 1122.00,687.00 1122.00,687.00
             1102.94,686.77 1094.86,668.92 1081.00,659.00
             1077.25,665.98 1067.84,674.19 1062.00,680.00
             1045.88,696.04 1016.78,718.72 993.00,719.00
             993.00,719.00 985.00,719.00 985.00,719.00
             965.34,718.97 958.98,709.98 946.00,697.00
             936.76,687.76 932.05,684.16 928.90,671.00
             925.93,658.59 928.36,648.18 930.00,636.00
             924.74,636.00 910.44,635.46 910.48,643.58
             910.50,647.97 922.36,654.75 923.67,661.00
             924.00,662.58 923.79,664.29 922.98,665.70
             921.56,668.16 908.13,678.05 905.00,680.37
             899.29,684.61 892.48,689.54 885.00,688.89
             877.85,688.28 872.78,681.78 868.00,677.00
             864.69,673.69 857.17,666.66 855.09,663.00
             850.40,654.76 854.81,645.39 859.00,638.00
             859.00,638.00 852.00,638.00 852.00,638.00
             843.63,638.16 840.63,643.37 835.00,649.00
             835.00,649.00 803.00,681.00 803.00,681.00
             798.54,685.41 789.09,694.48 783.00,695.66
             774.07,697.38 765.68,685.85 760.02,680.00
             756.90,676.78 753.67,673.87 754.65,669.00
             756.52,659.81 770.05,644.52 778.00,639.95
             785.90,635.42 789.78,639.02 796.71,629.00
             801.69,621.79 787.95,618.95 788.32,610.00
             788.52,605.14 792.82,600.28 796.02,597.00
             804.72,588.05 805.92,587.13 818.00,585.84
             820.43,585.58 823.63,584.85 826.00,585.16
             830.03,585.69 832.23,588.32 835.00,591.00
             840.28,583.62 845.74,580.08 852.00,573.99
             868.44,557.97 887.89,542.09 907.00,529.33
             907.00,529.33 925.00,518.20 925.00,518.20
             927.45,516.74 932.22,513.71 935.00,513.53
             938.75,513.30 941.56,516.60 944.00,519.00
             949.44,524.34 959.06,532.78 961.20,540.00
             963.01,546.09 960.41,551.64 957.75,557.00
             957.75,557.00 942.43,584.00 942.43,584.00
             940.73,586.97 935.02,596.00 935.66,599.00
             936.25,601.77 940.94,605.94 943.00,608.00 Z
           M 1097.00,558.00
           C 1097.00,558.00 1096.00,558.00 1096.00,558.00
             1096.00,558.00 1097.00,559.00 1097.00,559.00
             1097.00,559.00 1097.00,558.00 1097.00,558.00 Z
           M 931.00,635.00
           C 931.00,635.00 930.00,635.00 930.00,635.00
             930.00,635.00 931.00,636.00 931.00,636.00
             931.00,636.00 931.00,635.00 931.00,635.00 Z" />
</svg>
