<?xml version="1.0" encoding="UTF-8" standalone="no"?>
<svg x="0px" y="0px" viewBox="0 0 130.133 48.017025" version="1.1" id="svg20" sodipodi:docname="tinos-logo.svg" width="130.133" height="48.017025" inkscape:version="1.1.1 (c3084ef, 2021-09-22)"
  xmlns:inkscape="http://www.inkscape.org/namespaces/inkscape"
  xmlns:sodipodi="http://sodipodi.sourceforge.net/DTD/sodipodi-0.dtd"
  xmlns="http://www.w3.org/2000/svg"
  xmlns:svg="http://www.w3.org/2000/svg">
  <defs id="defs24" />
  <sodipodi:namedview id="namedview22" pagecolor="#ffffff" bordercolor="#FFFFFF" borderopacity="1.0" inkscape:pageshadow="2" inkscape:pageopacity="0.0" inkscape:pagecheckerboard="0" showgrid="false" inkscape:lockguides="false" inkscape:zoom="6.8719512" inkscape:cx="25.029281" inkscape:cy="11.132209" inkscape:window-width="1296" inkscape:window-height="847" inkscape:window-x="0" inkscape:window-y="25" inkscape:window-maximized="0" inkscape:current-layer="svg20" />
  <style type="text/css" id="style2">
	.st0{fill:#FFFFFF;}
  </style>
  <g id="g18" style="fill:#FFFFFF" transform="translate(-33.155556,-0.97986095)">
    <g id="g16" style="fill:#FFFFFF">
      <path class="st0" d="M 33.6,6.4 C 32.7,4.9 33.2,3.6 34.8,2.3 35.2,2 35.7,1.7 36.1,1.5 37.7,0.9 39.3,0.8 40.9,1.3 l 0.3,0.2 C 39.3,2.3 38.5,3.2 38.9,4.1 39.5,5.5 43.1,6 49.4,5.6 54.5,5.3 61.7,4.8 71,4.2 80.4,3.6 87.2,3.1 91.6,2.9 c 5.6,-0.3 9.1,0.3 10.5,2.1 1,1.7 0.1,3.5 -1.2,4.7 l -1,1 C 97.2,10.1 94,9.7 90.2,9.4 83.3,8.7 75.1,8.6 69.6,8.6 67.8,8.6 65.7,8.7 63.2,8.7 60.7,8.8 58.9,8.8 57.8,8.9 56.6,9 54.9,9 52.4,9.2 49.9,9.3 48.4,9.4 47.9,9.5 39.9,9.9 35.1,8.9 33.6,6.4 Z m 26,25.7 c 1,-3.6 1.8,-6.3 2.3,-8.2 0.5,-2 1.1,-4.1 1.5,-6.2 0.4,-2.2 0.7,-3.9 0.8,-5 0,-1.1 -0.1,-2.2 -0.1,-2.5 V 10 c 1.9,-0.8 4.3,-0.3 4.9,1.4 0.3,0.8 0.2,2.2 -0.1,4.3 -0.3,2 -0.7,5.5 -1.4,10.3 -0.7,4.8 -1.3,9.6 -1.9,14.3 -0.3,2 -0.2,4.6 0.1,7.8 0,0 -4.4,1.8 -7.4,0.3 -1.9,-1 -2,-3.8 -0.7,-8.5 0.3,-1.7 1.1,-4.3 2,-7.8 z" id="path4" style="fill:#FFFFFF" />
      <path class="st0" d="m 75.1,31.8 c -0.6,-3 -0.5,-5.7 0.4,-8.2 1.5,-4.5 5.5,-4.6 8.2,-2.4 0.4,-0.3 -1.7,3.6 -2,7.5 -0.4,3.4 0.3,5.1 1.9,5.3 2,0.3 3.6,-1.7 4.4,-3.7 0.1,-0.2 0.3,-0.1 0.6,0.1 0.4,0.4 0.4,1 -0.1,1.9 -0.7,1.3 -1.9,2.4 -3.7,3.4 -1.8,1 -3.6,1.4 -5.5,1 -2,-0.2 -3.4,-1.9 -4.2,-4.9 z M 84,15.2 c -1.5,0.9 -2.7,1.3 -3.5,1.3 -1.5,0 -3.9,-2.2 -3.6,-4.1 0.3,-2 2.7,-3.4 5.3,-3.4 2.6,0 4.4,1.4 4.3,3.4 -0.1,0.9 -1,1.9 -2.5,2.8 z" id="path6" style="fill:#FFFFFF" />
      <path class="st0" d="m 100.9,24.9 c 0.4,-1.3 0.3,-2.2 -0.2,-2.4 -0.7,-0.3 -1.7,0.1 -2.9,1.1 -2.5,2 -5.1,7 -5.5,12 v 0.7 c -2.7,1.1 -5.7,0.6 -6,-1.8 -0.3,-2 -0.3,-4.6 0,-7.9 0.3,-2.8 0.3,-5.4 -0.1,-7.8 l 0.4,-0.1 c 1.5,-0.5 4.7,-1.7 6.9,-0.2 1.5,1 1.8,3.1 1,6.1 3.3,-4 8.2,-6.1 11.8,-5.2 1.2,0.3 1.7,0.6 1.7,1.7 0.1,0.5 0.1,1 0,1.4 -0.1,0.8 -0.6,3.4 -0.9,4.8 -0.6,4.1 -0.3,6.4 1.1,6.7 1.8,0.5 3.6,-1.5 4.4,-3.7 0.1,-0.2 0.3,-0.1 0.6,0.1 0.4,0.4 0.4,1 -0.1,1.9 -0.8,1.5 -2.2,2.8 -4.2,3.8 -1.9,1 -3.7,1.3 -5.6,0.8 -2.9,-0.7 -3.9,-3.5 -3.1,-8.3 0.3,-1.1 0.6,-3 0.7,-3.7 z" id="path8" style="fill:#FFFFFF" />
      <path class="st0" d="m 113.3,34.8 c -1.8,-1.6 -2.5,-3.6 -2.2,-6.2 0.7,-7.2 8.5,-10.1 12.3,-9.1 0.6,-0.5 1.4,-0.8 2.2,-0.8 3.7,-0.3 4.3,3.9 3.9,8.7 -0.1,1 -0.3,2.1 -0.7,3.1 h 0.1 c 1.8,0 3.1,-1.5 3.5,-2.2 l 0.3,-0.2 c 0.2,-0.2 0.4,-0.2 0.7,0.1 0.3,0.3 0.3,0.8 -0.2,1.4 -1.3,1.6 -2.9,2.4 -4.7,2.4 h -0.4 c -1.7,3 -4.5,4.7 -8.5,4.9 -2.4,0.2 -4.5,-0.5 -6.3,-2.1 z m 9.3,-14.3 c -0.5,-0.1 -1.1,0 -1.7,0.3 -1.9,1.2 -3,3.5 -3.1,6.9 -0.2,4.1 1.2,6.2 4.3,6.2 1.6,0.1 3,-0.8 4.2,-2.4 -1.8,-0.8 -3,-2 -3.6,-3.7 -1.5,-2.8 -1.5,-5.2 -0.1,-7.3 z m 4.4,9.8 c 0.3,-0.7 0.5,-1.5 0.6,-2.5 0.4,-2.8 -0.3,-4.8 -1.4,-4.7 -1.3,0 -1.9,2 -1.5,4.2 0.2,1.4 1,2.5 2.3,3 z" id="path10" style="fill:#FFFFFF" />
      <path class="st0" d="m 137.7,18.9 c -0.7,0.5 -1.8,0.3 -2,-0.3 0.8,-1.3 1.2,-3.4 1.2,-6 0,-2.1 -0.5,-4.3 -1.5,-6.4 2.4,-0.8 4.4,-0.8 5.9,0.1 2,1.2 2.2,3.6 0.4,7.3 -1.3,2.6 -2.7,4.4 -4,5.3 z" id="path12" style="fill:#FFFFFF" />
      <path class="st0" d="m 151.2,37.3 c -2.2,-0.1 -3.9,-0.8 -5.2,-2.2 -0.8,-0.7 -0.6,-1.2 0.4,-1.5 0.3,-0.1 0.4,-0.1 0.5,0 0.7,1.2 1.8,1.7 3.1,1.6 1.4,-0.2 2.2,-1.1 2.5,-2.7 0.4,-2.4 -0.5,-4.9 -2.7,-7.6 -1.6,3.3 -3.2,5.9 -4.7,7.8 -0.8,1 -1.5,1.3 -2,0.7 -0.1,-0.1 -0.2,-0.3 -0.1,-0.3 2.1,-2.4 3.8,-5.9 5,-10.3 -2.2,-2.9 -2.7,-5 -1.6,-6.4 1.6,-2 6,-2 5.7,2 -0.1,0.5 -0.3,1.4 -0.6,2.7 0.3,0.3 1.1,1 2.2,2 1.2,1 2.1,1.9 2.7,2.5 1.3,1.2 2.9,3.6 2.9,5.5 0,1.2 -0.3,2.3 -0.9,3.4 1.9,-1 3.2,-2.4 4,-4.1 0.1,-0.2 0.3,-0.1 0.6,0.1 0.4,0.4 0.4,1 -0.1,1.9 -1.6,3.2 -6.8,5.5 -11.7,4.9 z" id="path14" style="fill:#FFFFFF" />
    </g>
  </g>
</svg>
